# xmcd
# 
# Track frame offsets:
#     182
#     93350
#     101620
#     119480
#     136632
#     151682
#     165312
# 
# Disc length: 2335
# 
# Revision: 6
# Processed by: cddbd v1.5.2PL0 Copyright (c) Steve Scherf et al.
# Submitted via: fre:ac v1.0.17
# 
DISCID=46091d07
DTITLE=Emerson, Lake and Palmer - Tarkus [MFSL UDCD 598]
DYEAR=1971
DGENRE=Pop/Rock*
TTITLE0=Tarkus
TTITLE1=Jeremy Bender
TTITLE2=Bitches Crystal
TTITLE3=The Only Way {Hymn}
TTITLE4=Infinite Space {Conclusion}
TTITLE5=A Time And A Place
TTITLE6=Are You Ready Eddy?
EXTD=
EXTT0=
EXTT1=
EXTT2=
EXTT3=
EXTT4=
EXTT5=
EXTT6=
PLAYORDER=
